<?xml version="1.0" encoding="UTF-8" standalone="no"?> <svg xmlns="http://www.w3.org/2000/svg" viewBox="0 0 64 64"><defs><style>.cls-1{fill:#94a1b2;}.cls-2{fill:#f64f7d;}.cls-3{fill:#f8e157;}.cls-4{fill:#4f9ff6;}.cls-5{fill:#5e697b;}.cls-6{fill:#e43b74;}.cls-7{fill:#f4b948;}.cls-8{fill:#18181f;}</style></defs><g id="Graph"><rect class="cls-1" x="4" y="52.81" width="56" height="3.93"/><rect class="cls-2" x="15.56" y="39.65" width="8.22" height="13.15"/><rect class="cls-3" x="23.78" y="35.65" width="8.22" height="17.15"/><rect class="cls-2" x="32" y="31.65" width="8.22" height="21.15"/><rect class="cls-3" x="40.22" y="27.65" width="8.22" height="25.15"/><rect class="cls-3" x="7.33" y="43.65" width="8.22" height="9.15"/><rect class="cls-2" x="48.44" y="23.65" width="8.22" height="29.15"/><path class="cls-4" d="M42.71,14.08a1.7,1.7,0,0,0-1-.76l-7.28-2a1.67,1.67,0,0,0-.86,3.22l3.3.89L6.49,33a1.73,1.73,0,1,0,1.73,3L38.61,18.48l-.89,3.3a1.67,1.67,0,1,0,3.22.86l2-7.28a1.69,1.69,0,0,0-.18-1.28"/><rect class="cls-5" x="52.55" y="52.81" width="7.45" height="3.93"/><rect class="cls-6" x="19.67" y="39.65" width="4.11" height="13.15"/><rect class="cls-6" x="36.11" y="31.65" width="4.11" height="21.15"/><rect class="cls-6" x="52.55" y="23.65" width="4.11" height="29.15"/><rect class="cls-7" x="27.89" y="35.65" width="4.11" height="17.15"/><rect class="cls-7" x="44.33" y="27.65" width="4.11" height="25.15"/><rect class="cls-7" x="11.45" y="43.65" width="4.11" height="9.15"/><path class="cls-8" d="M60,51.81H57.67V23.65a1,1,0,0,0-1-1H48.44a1,1,0,0,0-1,1v3H40.22a1,1,0,0,0-1,1v3H32a1,1,0,0,0-1,1v3H23.78a1,1,0,0,0-1,1v3H15.56a1,1,0,0,0-1,1v3H7.33a1,1,0,0,0-1,1v8.16H4a1,1,0,0,0-1,1v3.93a1,1,0,0,0,1,1H60a1,1,0,0,0,1-1V52.81A1,1,0,0,0,60,51.81ZM55.67,24.65V51.81H49.44V27.65h0v-3Zm-14.45,4h6.22V51.81H41.22Zm-8.22,4h6.22V51.81H33Zm-2,4V51.81H24.78V39.65h0v-3Zm-14.44,4h6.22V51.81H16.56Zm-8.23,4h6.23v7.16H8.33ZM59,55.74H5V53.81H59Z"/><path class="cls-8" d="M5,35.89a2.73,2.73,0,0,0,3.73,1L37,20.55l-.27,1a2.68,2.68,0,0,0,1.89,3.26,2.64,2.64,0,0,0,2-.27A2.6,2.6,0,0,0,41.9,22.9l2-7.28a2.63,2.63,0,0,0-.28-2h0A2.67,2.67,0,0,0,42,12.36l-7.28-1.95a2.65,2.65,0,0,0-3.26,1.88,2.67,2.67,0,0,0,1.88,3.27l1,.26L6,32.15A2.73,2.73,0,0,0,5,35.89Zm2-2L37.37,16.34a1,1,0,0,0-.24-1.83l-3.3-.89a.65.65,0,0,1-.47-.81.66.66,0,0,1,.64-.49l.17,0,7.28,1.95a.66.66,0,0,1,.47.82l-2,7.27a.62.62,0,0,1-.31.41.67.67,0,0,1-.5.07.66.66,0,0,1-.47-.82l.88-3.3a1,1,0,0,0-.36-1,1,1,0,0,0-1.1-.08L7.72,35.16A.74.74,0,0,1,7,33.88Z"/><path class="cls-8" d="M52.14,6.26a1,1,0,0,0-1,1v.38a2.83,2.83,0,0,0,1,5.48A.84.84,0,0,1,53,14a.83.83,0,0,1-.82.83h0a.76.76,0,0,1-.57-.24A1,1,0,0,0,50.14,16a2.8,2.8,0,0,0,1,.64V17a1,1,0,0,0,2,0V16.6a2.83,2.83,0,0,0-1-5.48.83.83,0,0,1-.83-.83.83.83,0,0,1,1.43-.59,1,1,0,0,0,1.41,0,1,1,0,0,0,0-1.42,2.76,2.76,0,0,0-1-.64V7.26A1,1,0,0,0,52.14,6.26Z"/></g></svg>