<?xml version="1.0" standalone="no"?>
<!DOCTYPE svg PUBLIC "-//W3C//DTD SVG 20010904//EN"
 "http://www.w3.org/TR/2001/REC-SVG-20010904/DTD/svg10.dtd">
<svg version="1.0" xmlns="http://www.w3.org/2000/svg"
 width="500.000000pt" height="500.000000pt" viewBox="0 0 500.000000 500.000000"
 preserveAspectRatio="xMidYMid meet">

<g transform="translate(0.000000,500.000000) scale(0.100000,-0.100000)"
fill="#000000" stroke="none">
<path d="M980 4895 c-34 -138 -35 -369 -2 -490 30 -109 99 -247 172 -343 124
-165 358 -357 575 -471 l80 -43 -40 34 c-137 115 -186 161 -271 256 -274 306
-427 645 -477 1052 l-13 105 -24 -100z"/>
<path d="M4006 4925 c-66 -547 -285 -941 -741 -1334 l-50 -43 60 33 c109 58
309 195 393 269 261 227 402 506 402 795 0 74 -23 227 -44 299 l-13 41 -7 -60z"/>
<path d="M4332 4587 c-26 -92 -101 -257 -164 -356 -180 -289 -517 -596 -948
-867 -391 -245 -582 -448 -662 -704 -31 -102 -31 -251 1 -365 76 -274 304
-536 560 -645 65 -28 231 -74 238 -66 2 2 -25 13 -59 26 -246 89 -442 297
-534 568 -142 415 32 742 562 1058 657 392 1000 835 1031 1331 3 57 4 103 2
103 -2 0 -14 -37 -27 -83z"/>
<path d="M661 4599 c-2 -209 94 -480 245 -690 156 -217 409 -440 699 -618 291
-179 384 -250 502 -384 127 -144 182 -271 190 -442 6 -128 -12 -221 -71 -357
-52 -120 -93 -184 -176 -271 -103 -109 -218 -188 -340 -233 -67 -24 5 -15 92
12 261 82 469 267 602 531 101 203 102 442 2 641 -101 201 -273 364 -597 568
-627 395 -989 792 -1125 1234 l-23 75 0 -66z"/>
<path d="M334 4340 c3 -130 8 -169 30 -245 66 -224 185 -386 402 -551 80 -61
334 -185 474 -232 171 -58 185 -58 80 -1 -293 158 -545 374 -712 609 -81 114
-184 315 -239 465 l-39 110 4 -155z"/>
<path d="M4645 4383 c-47 -139 -157 -352 -243 -473 -75 -106 -250 -288 -358
-373 -88 -69 -219 -155 -344 -225 -52 -29 -86 -51 -75 -48 224 59 494 182 640
291 33 25 93 78 134 118 192 188 278 391 289 675 2 78 2 142 0 142 -3 0 -22
-48 -43 -107z"/>
<path d="M2175 3947 c-19 -96 12 -203 80 -271 40 -40 34 -49 -31 -49 -74 0
-125 50 -126 123 0 47 -8 43 -31 -18 -34 -87 -14 -197 49 -270 37 -43 123 -92
162 -92 20 0 23 -4 19 -22 -24 -94 -14 -186 26 -263 l22 -40 6 100 c7 110 39
223 90 312 l29 52 -28 -10 c-46 -18 -129 -12 -177 11 -25 12 -45 25 -45 29 0
3 22 12 50 18 57 14 118 43 212 101 73 45 112 59 122 43 6 -9 -16 -65 -41
-112 -2 -4 43 17 101 46 121 61 205 80 310 72 l71 -6 -45 40 c-81 70 -165 85
-260 46 -49 -20 -60 -21 -85 -11 -45 19 -117 17 -166 -6 -132 -60 -275 21
-298 169 l-8 46 -8 -38z"/>
<path d="M206 3755 c34 -168 150 -328 324 -445 215 -145 456 -235 1010 -381
216 -57 470 -129 550 -157 30 -10 -57 71 -125 118 -132 90 -298 160 -675 288
-560 191 -739 272 -925 423 -52 42 -83 76 -150 164 -15 19 -15 19 -9 -10z"/>
<path d="M4786 3741 c-41 -58 -141 -151 -226 -208 -167 -112 -331 -182 -844
-358 -329 -113 -499 -182 -619 -253 -81 -48 -186 -135 -176 -146 3 -3 38 5 77
18 84 29 245 74 557 157 423 111 676 205 870 320 173 103 295 231 350 368 22
53 47 141 40 141 -1 0 -14 -18 -29 -39z"/>
<path d="M2783 3569 c-151 -58 -222 -235 -151 -380 16 -31 37 -64 49 -75 20
-18 20 -18 12 11 -4 17 -8 71 -8 120 0 82 3 97 33 157 34 70 102 141 164 171
l33 17 -40 -1 c-22 0 -63 -9 -92 -20z"/>
<path d="M185 3348 c15 -51 78 -166 114 -211 122 -147 302 -242 538 -284 76
-14 149 -17 323 -16 124 1 239 6 255 12 l30 9 -40 1 c-73 2 -318 41 -450 73
-319 76 -531 184 -694 353 -53 55 -80 78 -76 63z"/>
<path d="M4765 3292 c-94 -101 -166 -153 -310 -223 -140 -68 -260 -109 -416
-145 -133 -30 -346 -63 -409 -65 -36 0 -41 -2 -23 -9 12 -5 97 -12 190 -16
517 -21 845 121 999 431 26 52 46 97 43 99 -2 2 -35 -30 -74 -72z"/>
<path d="M560 2745 c0 -16 64 -96 110 -138 163 -147 354 -171 730 -92 325 68
388 77 535 78 104 1 156 -3 203 -16 79 -21 79 -21 57 3 -31 34 -112 81 -187
108 -70 25 -81 26 -288 26 -141 0 -265 -6 -360 -18 -366 -44 -592 -30 -782 49
-10 4 -18 4 -18 0z"/>
<path d="M4396 2728 c-28 -10 -82 -26 -120 -35 -104 -24 -405 -23 -611 2 -108
13 -226 19 -365 20 -221 0 -266 -7 -372 -61 -47 -24 -122 -83 -115 -91 2 -2
33 4 68 14 47 13 99 17 199 16 144 -1 242 -16 535 -78 385 -82 589 -52 750
111 57 57 106 125 88 123 -4 -1 -30 -10 -57 -21z"/>
<path d="M2936 2458 c4 -7 32 -44 62 -81 106 -131 291 -245 467 -288 144 -35
364 -26 485 19 21 8 14 11 -45 17 -315 31 -642 141 -911 306 -36 22 -62 34
-58 27z"/>
<path d="M2010 2423 c-69 -44 -250 -132 -355 -172 -163 -62 -364 -109 -538
-126 -38 -4 -67 -8 -65 -10 10 -10 132 -36 211 -45 173 -20 371 24 532 118 79
46 248 200 274 250 15 29 6 27 -59 -15z"/>
<path d="M1450 2395 c-122 -39 -368 -56 -510 -35 -35 5 -66 8 -67 6 -2 -1 25
-16 59 -33 93 -45 155 -56 267 -50 106 6 185 31 265 86 65 45 62 50 -14 26z"/>
<path d="M3540 2381 c18 -17 68 -45 110 -62 140 -59 310 -51 447 21 l58 30
-55 -8 c-30 -4 -127 -7 -215 -6 -150 1 -260 16 -360 49 -13 4 -9 -4 15 -24z"/>
<path d="M2112 2233 c-18 -61 -104 -185 -161 -232 -134 -112 -250 -155 -416
-155 -111 0 -119 1 -270 58 -41 16 72 -75 130 -104 151 -75 307 -77 454 -4
167 82 293 280 279 439 l-3 40 -13 -42z"/>
<path d="M2890 2213 c0 -104 50 -220 136 -312 115 -124 313 -186 470 -148 93
23 163 59 221 112 l48 45 -46 -20 c-124 -53 -280 -62 -409 -24 -162 47 -305
166 -378 313 l-42 83 0 -49z"/>
<path d="M2331 1844 c-37 -54 -178 -182 -254 -232 -90 -58 -195 -106 -295
-135 -45 -13 -84 -26 -87 -29 -7 -7 27 -78 57 -121 l19 -27 92 47 c203 105
352 250 457 446 45 83 50 109 11 51z"/>
<path d="M2386 1811 c-65 -218 -219 -419 -427 -557 l-102 -68 49 -44 c49 -43
161 -122 173 -122 13 1 113 151 162 243 83 159 136 325 159 499 15 110 10 128
-14 49z"/>
<path d="M2660 1861 c0 -13 94 -167 135 -221 56 -72 165 -175 240 -225 76 -50
206 -116 216 -109 17 10 80 134 74 144 -3 5 -14 10 -23 10 -30 0 -173 50 -244
86 -122 62 -181 105 -290 215 -60 59 -108 104 -108 100z"/>
<path d="M2615 1795 c20 -234 118 -498 261 -696 32 -44 60 -79 64 -79 10 0
139 92 184 132 l39 34 -94 59 c-112 71 -236 191 -306 295 -64 96 -79 125 -120
235 l-34 90 6 -70z"/>
<path d="M2460 1763 c0 -162 -92 -492 -200 -718 -23 -48 -40 -89 -37 -91 6 -6
148 -41 200 -48 l47 -7 0 450 c0 248 -2 451 -5 451 -3 0 -5 -17 -5 -37z"/>
<path d="M2551 1337 l-1 -438 48 7 c51 7 193 41 199 48 2 2 -13 39 -35 82 -92
185 -159 398 -192 617 l-18 122 -1 -438z"/>
<path d="M2793 693 l-33 -4 0 -163 0 -163 51 -6 c105 -13 180 22 192 88 6 35
-14 89 -38 102 -14 8 -14 14 -4 35 33 73 -49 127 -168 111z m105 -82 c4 -27
-20 -51 -50 -51 -14 0 -18 8 -18 41 0 39 1 40 33 37 25 -2 33 -8 35 -27z m23
-111 c47 -25 9 -90 -53 -90 l-38 0 0 50 0 50 36 0 c19 0 44 -5 55 -10z"/>
<path d="M3193 689 c-41 -12 -73 -53 -73 -93 0 -57 35 -86 122 -101 45 -7 64
-33 43 -61 -20 -28 -94 -26 -135 4 l-31 24 3 -44 c3 -43 3 -43 52 -55 66 -16
123 -3 159 37 46 52 31 118 -35 144 -21 9 -46 16 -56 16 -24 0 -62 28 -62 46
0 8 11 20 25 26 23 11 55 5 113 -18 20 -9 15 54 -5 64 -30 16 -86 21 -120 11z"/>
<path d="M4178 693 l-28 -4 0 -165 0 -164 35 0 35 0 0 65 c0 57 2 65 19 65 14
0 26 -18 46 -65 27 -64 29 -65 66 -65 l37 0 -34 71 -34 71 25 30 c40 47 29
120 -23 147 -22 11 -109 20 -144 14z m110 -69 c42 -29 17 -84 -39 -84 -28 0
-29 1 -29 50 0 45 2 50 23 50 12 0 33 -7 45 -16z"/>
<path d="M610 660 c0 -28 2 -30 40 -30 l40 0 0 -135 0 -135 35 0 35 0 0 135 0
135 40 0 c38 0 40 2 40 30 l0 30 -115 0 -115 0 0 -30z"/>
<path d="M970 525 l0 -165 30 0 30 0 0 70 0 70 60 0 60 0 0 -70 0 -70 30 0 30
0 0 165 0 165 -30 0 -30 0 0 -65 0 -65 -60 0 -60 0 0 65 0 65 -30 0 -30 0 0
-165z"/>
<path d="M1380 525 l0 -165 90 0 90 0 0 30 0 30 -60 0 -60 0 0 45 0 45 45 0
c43 0 45 1 45 30 0 29 -2 30 -45 30 -43 0 -45 1 -45 30 0 30 1 30 54 30 47 0
54 3 60 23 3 12 6 25 6 30 0 4 -40 7 -90 7 l-90 0 0 -165z"/>
<path d="M1903 677 c3 -7 24 -81 48 -165 l43 -152 30 0 31 0 24 105 c13 58 27
105 31 105 4 0 18 -47 31 -105 l24 -105 31 0 30 0 46 165 45 165 -33 0 c-36 0
-36 1 -64 -130 -19 -90 -22 -89 -49 20 -27 103 -27 105 -58 108 l-30 3 -23
-93 c-13 -51 -26 -99 -30 -106 -4 -8 -19 31 -35 92 l-28 106 -35 0 c-24 0 -33
-4 -29 -13z"/>
<path d="M2440 525 l0 -165 89 0 89 0 4 30 5 30 -64 0 -63 0 0 45 0 45 45 0
c43 0 45 1 45 30 0 29 -2 30 -45 30 -43 0 -45 1 -45 30 l0 30 60 0 60 0 0 30
0 30 -90 0 -90 0 0 -165z"/>
<path d="M3470 660 c0 -28 2 -30 40 -30 l40 0 0 -135 0 -135 35 0 35 0 0 135
0 135 40 0 c38 0 40 2 40 30 l0 30 -115 0 -115 0 0 -30z"/>
<path d="M3820 525 l0 -165 95 0 95 0 0 30 0 30 -60 0 -60 0 0 45 0 45 45 0
c43 0 45 1 45 30 0 29 -2 30 -45 30 -43 0 -45 1 -45 30 0 30 1 30 55 30 54 0
55 0 55 30 l0 30 -90 0 -90 0 0 -165z"/>
</g>
</svg>
